<?xml version="1.0" encoding="utf-8"?>
<!-- Generator: Adobe Illustrator 25.0.0, SVG Export Plug-In . SVG Version: 6.00 Build 0)  -->
<svg version="1.1" id="Layer_1" xmlns="http://www.w3.org/2000/svg" xmlns:xlink="http://www.w3.org/1999/xlink" x="0px" y="0px"
	 viewBox="0 0 507.2 507.2" style="enable-background:new 0 0 507.2 507.2;" xml:space="preserve">
<style type="text/css">
	.st0{fill:#FF0000;}
	.st1{fill:#B2B2B2;}
</style>
<g>
	<g>
		<path class="st0" d="M253.5,358.9c-24.2,0-44,19.7-44,43.8c0,24.2,19.7,43.8,44,43.8c24.2,0,44-19.7,44-43.8
			C297.4,378.5,277.7,358.9,253.5,358.9z"/>
	</g>
</g>
<g>
	<g>
		<path class="st1" d="M360.7,299.2c-28.6-28.6-66.7-44.4-107.3-44.4c-40.4,0-78.4,15.7-107,44.1c-11.6,11.5-11.6,30.2,0,41.8
			c5.6,5.6,13.1,8.7,21,8.7s15.3-3.1,20.9-8.6c17.4-17.3,40.5-26.8,65.1-26.8c24.7,0,47.9,9.6,65.3,27c5.6,5.6,13.1,8.7,21,8.7
			s15.3-3.1,20.9-8.6C372.2,329.5,372.3,310.7,360.7,299.2z"/>
	</g>
</g>
<g>
	<g>
		<path class="st1" d="M498.5,161.9C433.1,96.6,346,60.7,253.5,60.7S74.1,96.6,8.7,161.7c-11.6,11.5-11.6,30.2,0,41.8
			c5.6,5.6,13,8.6,21,8.6c7.9,0,15.4-3.1,20.9-8.6c54.2-54,126.3-83.7,202.9-83.7c76.7,0,148.9,29.8,203.1,83.9
			c5.6,5.6,13.1,8.7,21,8.7s15.3-3.1,20.9-8.6C510.1,192.1,510.1,173.4,498.5,161.9z"/>
	</g>
</g>
<g>
	<g>
		<path class="st1" d="M427.9,232.3c-46.6-46.5-108.5-72.1-174.4-72.1c-65.8,0-127.6,25.5-174.1,71.8c-5.6,5.6-8.7,13-8.7,20.9
			c0,7.9,3.1,15.3,8.7,20.9s13,8.7,21,8.7c7.9,0,15.3-3.1,20.9-8.6c35.4-35.2,82.3-54.5,132.3-54.5s97.1,19.4,132.5,54.7
			c5.6,5.6,13,8.7,21,8.7c7.9,0,15.4-3.1,20.9-8.6c5.6-5.6,8.7-13,8.7-20.9C436.5,245.3,433.5,237.8,427.9,232.3z"/>
	</g>
</g>
</svg>
